<svg width="30" height="16" viewBox="0 0 30 16" fill="none" xmlns="http://www.w3.org/2000/svg">
<path d="M26.0582 12.0436C23.8467 11.806 22.4388 10.6462 21.5059 9.2663C21.7645 13.0742 19.9233 16.365 16.5415 15.9667C12.2198 15.4602 12.5692 10.5589 14.1099 10.2724C19.574 15.0654 21.7959 3.3449 12.2338 1.46892C10.3926 1.10909 8.2126 1.32219 7.49989 1.54927C13.5858 3.01652 10.4485 9.78682 6.2841 7.29599C7.25883 6.77896 7.8807 4.99381 6.40288 4.20429C5.23251 3.57896 3.84204 4.2497 2.9826 5.4794C1.7144 7.2925 1.80873 9.52831 2.86381 10.7266C4.64907 12.7528 6.31904 11.2925 6.40288 10.9606C7.99599 12.5292 5.30588 16.2357 2.28387 13.8078C-2.73651 9.78333 0.57547 -0.581737 11.6713 0.0261237C15.3886 0.228744 18.0996 2.4366 20.1993 5.04272C21.3837 6.68115 23.6091 9.35713 25.4712 9.30123C28.0041 9.22438 28.1369 6.90123 27.0329 6.25494C31.3755 6.02088 30.8654 12.5536 26.0582 12.0401V12.0436Z" fill="#FE8FC4"/>
<path d="M25.0377 6.3208C24.9994 6.33144 24.9555 6.31017 24.8953 6.27294C24.3257 5.94856 23.2578 5.48591 22.5021 4.73078C21.9928 4.22559 21.6259 3.49173 21.593 2.83233C21.5601 2.17292 21.9709 1.75813 22.3926 1.73154C22.8142 1.70495 23.2414 2.00807 23.5098 2.32714C23.5371 2.35904 23.5864 2.4069 23.6138 2.40158C23.6412 2.39095 23.6521 2.32714 23.6521 2.27927C23.6521 1.8698 23.7781 1.38588 24.1396 1.13595C24.501 0.886011 25.076 0.971096 25.4703 1.50819C25.8701 2.03997 26.0563 2.83764 25.9851 3.53959C25.8811 4.5872 25.3498 5.59758 25.1144 6.19318C25.087 6.25699 25.0705 6.30485 25.0322 6.31549L25.0377 6.3208Z" fill="#FE8FC4"/>
</svg>
